<?xml version="1.0" encoding="utf-8"?>
<!-- Generator: Adobe Illustrator 15.0.0, SVG Export Plug-In . SVG Version: 6.00 Build 0)  -->
<!DOCTYPE svg PUBLIC "-//W3C//DTD SVG 1.1//EN" "http://www.w3.org/Graphics/SVG/1.1/DTD/svg11.dtd">
<svg version="1.1" id="图层_1" xmlns="http://www.w3.org/2000/svg" xmlns:xlink="http://www.w3.org/1999/xlink" x="0px" y="0px"
	 width="200px" height="200px" viewBox="0 0 200 200" enable-background="new 0 0 200 200" xml:space="preserve">
<path fill="#FCFCFC" d="M138.737,66.967c1.125-12.421-3.224-22.481-3.224-22.481c-13.404,1.608-22.966,10.679-22.966,10.679
	c-4.847-1.608-13.236-1.489-13.236-1.489s-8.397-0.127-13.237,1.489c0,0-9.562-9.07-22.973-10.679c0,0-4.349,10.061-3.232,22.481
	c0,0-7.945,6.702-7.819,20.976c0.127,14.29,5.831,33.524,32.906,35.876c5.584,0.508,14.354,0.603,14.354,0.603
	s8.761-0.095,14.354-0.603c27.075-2.352,32.787-21.594,32.905-35.876C146.689,73.669,138.737,66.967,138.737,66.967z
	 M99.304,119.772c-26.41,0.419-34.427-7.534-34.506-20.771C64.71,85.757,75.888,82.28,82.177,82.7
	c6.29,0.404,14.394,0.982,17.126,0.982s10.836-0.579,17.135-0.982c6.289-0.428,17.467,3.058,17.38,16.302
	C133.73,112.238,125.722,120.191,99.304,119.772z"/>
<path fill="#FCFCFC" d="M108.983,100.167c-0.002,5.157,2.962,9.342,6.62,9.344c3.657,0.001,6.624-4.178,6.625-9.335
	c0-0.003,0-0.006,0-0.009c0.002-5.158-2.962-9.342-6.619-9.344c-3.658-0.002-6.624,4.177-6.626,9.335
	C108.983,100.16,108.983,100.163,108.983,100.167z"/>
<path fill="#FCFCFC" d="M76.189,100.167c-0.002,5.157,2.962,9.342,6.619,9.344c3.658,0.001,6.624-4.178,6.625-9.335
	c0-0.003,0-0.006,0-0.009c0.002-5.158-2.962-9.342-6.619-9.344s-6.624,4.177-6.625,9.335
	C76.189,100.16,76.189,100.163,76.189,100.167z"/>
<path fill="#6186A2" d="M107.083,7.01l71.696,39.806c5.012,2.778,8.125,8.053,8.137,13.783v78.787
	c-0.01,5.73-3.123,11.006-8.137,13.783l-71.696,39.805c-4.84,2.695-10.727,2.695-15.566,0l-71.682-39.805
	c-5.014-2.777-8.13-8.052-8.143-13.783V60.599c0.014-5.731,3.13-11.006,8.143-13.783L91.517,7.01
	C96.358,4.323,102.241,4.323,107.083,7.01z"/>
<path fill="#6186A2" d="M107.083,7.01l71.696,39.806c5.012,2.778,8.125,8.053,8.137,13.783v78.787
	c-0.01,5.73-3.123,11.006-8.137,13.783l-71.696,39.805c-4.84,2.695-10.727,2.695-15.566,0l-71.682-39.805
	c-5.014-2.777-8.13-8.052-8.143-13.783V60.599c0.014-5.731,3.13-11.006,8.143-13.783L91.517,7.01
	C96.358,4.323,102.241,4.323,107.083,7.01z"/>
<path fill="#072F4E" d="M100.096,19.446c-0.496-0.262-1.089-0.262-1.584,0L26.83,59.26c-0.493,0.265-0.8,0.779-0.8,1.339v78.787
	c0,0.554,0.309,1.069,0.8,1.347l71.682,39.806c0.496,0.262,1.089,0.262,1.584,0l71.682-39.806c0.493-0.269,0.804-0.785,0.808-1.347
	V60.599c-0.002-0.561-0.313-1.076-0.808-1.339L100.096,19.446z"/>
<path fill="#FCFCFC" d="M142.097,81.02c1.219-13.482-3.494-24.39-3.494-24.39c-14.561,1.743-24.921,11.589-24.921,11.589
	c-5.26-1.759-14.37-1.64-14.37-1.64s-9.102-0.119-14.362,1.64c0,0-10.377-9.847-24.929-11.589c0,0-4.713,10.908-3.501,24.39
	c0,0-8.626,7.272-8.492,22.774c0.134,15.503,6.329,36.376,35.71,38.927c6.052,0.554,15.574,0.634,15.574,0.634
	s9.521-0.08,15.582-0.634c29.372-2.551,35.583-23.424,35.709-38.927C150.73,88.284,142.097,81.02,142.097,81.02L142.097,81.02z
	 M99.296,138.324c-28.668,0.451-37.358-8.167-37.453-22.561c-0.095-14.361,12.041-18.132,18.861-17.673
	c6.829,0.436,15.629,1.069,18.583,1.069c2.971,0,11.755-0.633,18.6-1.069c6.821-0.459,18.956,3.319,18.869,17.673
	C136.662,130.157,127.972,138.775,99.296,138.324z"/>
<path fill="#FCFCFC" d="M109.808,117.031c-0.003,5.604,3.211,10.151,7.179,10.155c3.968,0.005,7.188-4.535,7.191-10.14
	c0-0.005,0-0.01,0-0.016c0.002-5.604-3.212-10.151-7.18-10.155s-7.188,4.535-7.19,10.14
	C109.808,117.021,109.808,117.026,109.808,117.031z"/>
<path fill="#FCFCFC" d="M74.225,117.031c0,5.604,3.216,10.147,7.185,10.147s7.185-4.543,7.185-10.147s-3.216-10.148-7.185-10.148
	S74.225,111.427,74.225,117.031z"/>
</svg>
